<?xml version="1.0" encoding="utf-8"?>
<!-- Generator: Adobe Illustrator 16.0.0, SVG Export Plug-In . SVG Version: 6.00 Build 0)  -->
<!DOCTYPE svg PUBLIC "-//W3C//DTD SVG 1.1//EN" "http://www.w3.org/Graphics/SVG/1.1/DTD/svg11.dtd">
<svg version="1.1" id="Layer_1" xmlns="http://www.w3.org/2000/svg" xmlns:xlink="http://www.w3.org/1999/xlink" x="0px" y="0px"
	 width="512px" height="512px" viewBox="0 0 512 512" enable-background="new 0 0 512 512" xml:space="preserve">
<path d="M256,32C132.281,32,32,132.281,32,256s100.281,224,224,224s224-100.281,224-224S379.719,32,256,32z M256,448
	c-105.875,0-192-86.125-192-192S150.125,64,256,64s192,86.125,192,192S361.875,448,256,448z"/>
<path d="M192,144c-17.688,0-32,21.5-32,48c0,26.531,14.313,48,32,48s32-21.469,32-48C224,165.5,209.688,144,192,144z"/>
<path d="M320,144c-17.688,0-32,21.5-32,48c0,26.531,14.313,48,32,48s32-21.469,32-48C352,165.5,337.688,144,320,144z"/>
<g>
	<path d="M320,400c-6.344,0-12.344-3.781-14.844-10.031c-12.813-31.875-38.844-56.375-71.406-67.219
		c-32.578-10.875-68.094-6.875-97.453,10.938c-7.547,4.563-17.391,2.156-21.969-5.375c-4.594-7.563-2.188-17.406,5.375-22
		c37.406-22.688,82.656-27.781,124.172-13.938c41.484,13.813,74.656,45.031,90.969,85.656c3.313,8.188-0.688,17.531-8.875,20.813
		C324,399.625,322,400,320,400z"/>
</g>
</svg>
