<?xml version="1.0" encoding="utf-8"?>
<!-- Generator: Adobe Illustrator 15.0.0, SVG Export Plug-In . SVG Version: 6.00 Build 0)  -->
<!DOCTYPE svg PUBLIC "-//W3C//DTD SVG 1.1//EN" "http://www.w3.org/Graphics/SVG/1.1/DTD/svg11.dtd">
<svg version="1.1" id="Layer_1" xmlns="http://www.w3.org/2000/svg" xmlns:xlink="http://www.w3.org/1999/xlink" x="0px" y="0px"
	 width="24px" height="24px" viewBox="408.945 285.639 24 24" enable-background="new 408.945 285.639 24 24" xml:space="preserve">
<path fill="#565656" d="M417.528,291.029c4.74,0,8.583-1.208,8.583-2.695c0-1.487-3.843-2.695-8.583-2.695s-8.583,1.208-8.583,2.695
	C408.945,289.821,412.787,291.029,417.528,291.029z M408.945,290.493v3.232c0,1.487,3.843,2.695,8.583,2.695
	c0.734,0,1.442-0.032,2.122-0.086c0.178-0.134,0.384-0.223,0.607-0.253c0.026-0.437,0.223-0.852,0.562-1.12l0.666-0.566
	c0.241-0.218,0.545-0.337,0.862-0.337c0.118,0,0.234,0.017,0.348,0.048c0.173-0.373,0.478-0.659,0.857-0.769l0.813-0.268
	c0.133-0.047,0.271-0.071,0.412-0.071c0.271,0,0.536,0.089,0.768,0.258c0.031,0.022,0.062,0.046,0.09,0.071
	c0.059-0.058,0.121-0.111,0.188-0.158c0.093-0.064,0.191-0.106,0.29-0.145v-2.532c-2.451,1.811-7.812,1.885-8.583,1.885
	C416.757,292.377,411.396,292.303,408.945,290.493z M417.528,301.811c0.125,0,0.248-0.004,0.371-0.006
	c-0.08-0.239-0.109-0.499-0.066-0.76l0.13-0.929c0.057-0.485,0.331-0.899,0.711-1.129c-0.145-0.403-0.121-0.86,0.07-1.255
	c-0.592,0.03-1.034,0.035-1.216,0.035c-0.771,0-6.132-0.074-8.583-1.885v3.232C408.945,300.603,412.787,301.811,417.528,301.811z
	 M418.955,305.623c-0.387-0.188-0.681-0.563-0.779-1.028l-0.213-0.887c-0.051-0.184-0.059-0.37-0.044-0.554
	c-0.17,0.004-0.31,0.005-0.39,0.005c-0.771,0-6.132-0.073-8.583-1.885v3.232c0,1.487,3.843,2.695,8.583,2.695
	c0.636,0,1.254-0.022,1.851-0.063l-0.169-0.255C418.948,306.519,418.865,306.055,418.955,305.623z M432.734,302.155l-1.271-0.37
	c0-0.006,0-0.011-0.001-0.016c-0.004-0.17-0.012-0.338-0.031-0.505l0.199-0.089l1.019-0.456c0.138-0.063,0.214-0.224,0.171-0.358
	l-0.23-0.948c-0.025-0.144-0.165-0.24-0.311-0.218l-0.255,0.039l-1.074,0.164c-0.06-0.146-0.129-0.29-0.2-0.428l0.959-0.982
	c0.105-0.11,0.125-0.289,0.041-0.399l-0.122-0.186l-0.401-0.61c-0.053-0.095-0.157-0.137-0.262-0.119
	c-0.033,0.005-0.065,0.016-0.097,0.035l-1.239,0.747c-0.088-0.087-0.18-0.171-0.273-0.25l0.587-1.334
	c0.064-0.147,0.022-0.322-0.093-0.392l-0.749-0.535c-0.083-0.071-0.201-0.062-0.296,0.007c-0.023,0.018-0.047,0.036-0.066,0.062
	l-0.561,0.733l-0.393,0.511c-0.004,0.003-0.006,0.007-0.009,0.014c-0.028-0.011-0.053-0.022-0.083-0.029l0.03-1.623
	c0.002-0.163-0.103-0.304-0.231-0.312l-0.492-0.079l-0.333-0.053l-0.06-0.009c-0.063-0.017-0.125,0-0.179,0.037
	c-0.059,0.042-0.106,0.107-0.125,0.19l-0.237,0.94l-0.154,0.619c-0.088,0.003-0.178,0.006-0.265,0.014
	c-0.007-0.018-0.013-0.036-0.016-0.054l-0.278-0.695l-0.012-0.029l-0.112-0.282l-0.192-0.484c-0.025-0.062-0.067-0.107-0.113-0.14
	c-0.066-0.048-0.146-0.069-0.221-0.039l-0.854,0.281c-0.128,0.03-0.212,0.186-0.189,0.346l0.105,0.7l0.13,0.858
	c-0.093,0.044-0.183,0.089-0.274,0.139c-0.006-0.008-0.012-0.017-0.021-0.026l-0.659-0.728l-0.387-0.428
	c-0.101-0.114-0.267-0.131-0.364-0.034l-0.706,0.601c-0.056,0.039-0.09,0.104-0.101,0.176c-0.012,0.072,0,0.151,0.037,0.22
	l0.552,1.028l0.187,0.349c-0.082,0.089-0.16,0.184-0.236,0.279c-0.004,0-0.008-0.003-0.012-0.003l-0.943-0.47l-0.407-0.203
	c-0.132-0.067-0.292-0.018-0.351,0.112l-0.106,0.19l-0.36,0.646c-0.076,0.118-0.047,0.295,0.07,0.397l0.676,0.594l0.481,0.424
	c0.004,0.001,0.006,0.006,0.008,0.006c-0.043,0.123-0.086,0.248-0.122,0.379c-0.005-0.002-0.009-0.005-0.014-0.005l-1.479-0.046
	c-0.146-0.003-0.276,0.111-0.288,0.256l-0.136,0.971c-0.027,0.14,0.063,0.289,0.207,0.336l0.448,0.14l0.976,0.304
	c0.005,0,0.012,0,0.017,0.001c0,0.117,0.005,0.232,0.012,0.345c-0.007,0.002-0.015,0.005-0.02,0.008l-1.372,0.612
	c-0.052,0.023-0.09,0.062-0.121,0.105c-0.053,0.074-0.077,0.167-0.047,0.253l0.229,0.949c0.023,0.141,0.164,0.239,0.311,0.216
	l1.451-0.219c0.044,0.118,0.097,0.232,0.148,0.344l-0.107,0.112l-0.934,0.971c-0.106,0.111-0.123,0.293-0.038,0.401l0.527,0.791
	c0.022,0.038,0.055,0.065,0.092,0.085c0.078,0.044,0.179,0.047,0.269-0.007l0.061-0.037l1.199-0.73
	c0.076,0.087,0.161,0.17,0.247,0.253l-0.097,0.239l-0.129,0.316l-0.346,0.846c-0.059,0.15-0.013,0.322,0.105,0.387l0.762,0.511
	c0.105,0.082,0.268,0.048,0.362-0.078l0.869-1.213c0.12,0.054,0.238,0.101,0.361,0.144l-0.026,1.543
	c-0.003,0.163,0.101,0.304,0.233,0.313l0.753,0.119l0.131,0.021c0.128,0.032,0.264-0.071,0.303-0.228l0.247-0.986l0.126-0.507
	c0.067,0,0.138-0.001,0.203-0.007l0.315,0.859l0.104,0.287l0.089,0.245c0.059,0.15,0.203,0.235,0.325,0.188l0.866-0.25
	c0.05-0.01,0.092-0.042,0.126-0.083c0.053-0.065,0.085-0.157,0.072-0.258l-0.072-0.608l-0.067-0.534l-0.033-0.278
	c0.032-0.014,0.068-0.033,0.101-0.048c0.089-0.042,0.176-0.084,0.268-0.132l0.032,0.035l0.897,1.011
	c0.106,0.114,0.271,0.13,0.369,0.035l0.708-0.594c0.111-0.079,0.141-0.257,0.065-0.397l-0.645-1.22
	c0.103-0.113,0.204-0.235,0.3-0.356l1.193,0.594c0.137,0.066,0.293,0.018,0.355-0.113l0.466-0.839
	c0.076-0.113,0.045-0.293-0.067-0.393l-1.04-0.912c0.052-0.144,0.103-0.29,0.144-0.439l1.314,0.016
	c0.15,0.001,0.273-0.116,0.282-0.258l0.12-0.974C432.968,302.347,432.875,302.198,432.734,302.155z M426.999,297.724l0.02-0.153
	c0.418,0.114,0.806,0.297,1.158,0.536c0.201,0.137,0.386,0.299,0.561,0.47c0.33,0.325,0.617,0.7,0.835,1.122l-1.396,0.611
	l-0.139,0.061c-0.129-0.198-0.281-0.376-0.454-0.529c-0.177-0.155-0.373-0.287-0.585-0.389c-0.07-0.033-0.14-0.072-0.214-0.099
	L426.999,297.724z M426.666,301.002c0.146,0.12,0.259,0.281,0.333,0.463c0.079,0.194,0.111,0.412,0.081,0.638
	c-0.013,0.107-0.044,0.206-0.081,0.3c-0.074,0.188-0.188,0.351-0.333,0.471c-0.158,0.131-0.351,0.211-0.556,0.229
	c-0.079,0.007-0.158,0.007-0.239-0.006c-0.537-0.086-0.918-0.597-0.91-1.177c0-0.051-0.001-0.101,0.006-0.152
	c0.086-0.642,0.627-1.087,1.209-0.994C426.363,300.802,426.527,300.887,426.666,301.002z M426.111,298.083l-0.151,1.142
	c-0.37,0.01-0.719,0.118-1.036,0.293c-0.155,0.087-0.306,0.185-0.441,0.306l-1.301-1.125c0.487-0.516,1.085-0.895,1.742-1.097
	c0.378-0.117,0.779-0.169,1.188-0.16c0.028,0,0.056-0.005,0.085-0.004L426.111,298.083z M422.169,303.453
	c-0.073-0.222-0.124-0.454-0.163-0.688c-0.074-0.435-0.092-0.885-0.043-1.345c0.005-0.043,0.004-0.086,0.01-0.13
	c0.069-0.534,0.223-1.028,0.441-1.477c0.07-0.143,0.146-0.282,0.229-0.415l1.282,1.108c-0.083,0.147-0.153,0.307-0.209,0.474
	c-0.063,0.18-0.109,0.369-0.136,0.566c-0.038,0.293-0.026,0.58,0.019,0.854c0.021,0.133,0.049,0.263,0.086,0.388l-0.587,0.258
	L422.169,303.453z M425.029,306.3c-0.195-0.054-0.38-0.128-0.559-0.214c-0.146-0.069-0.29-0.146-0.427-0.229
	c-0.462-0.285-0.872-0.652-1.198-1.098c-0.113-0.152-0.22-0.312-0.313-0.479l0.703-0.309l0.845-0.37
	c0.224,0.313,0.511,0.576,0.843,0.758c0.108,0.06,0.223,0.111,0.341,0.151l-0.167,1.265L425.029,306.3z M428.177,305.759
	c-0.457,0.312-0.969,0.526-1.511,0.62c-0.021,0.004-0.043,0.005-0.064,0.008c-0.204,0.033-0.413,0.045-0.624,0.044
	c-0.041-0.001-0.082,0.002-0.125,0l0.225-1.698c0.007-0.03,0.014-0.061,0.019-0.09c0.154-0.004,0.301-0.03,0.447-0.066
	c0.041-0.011,0.083-0.019,0.123-0.03c0.115-0.034,0.225-0.081,0.333-0.132c0.154-0.072,0.306-0.156,0.444-0.263l0.733,0.636
	l0.576,0.5C428.573,305.464,428.379,305.621,428.177,305.759z M430.073,302.581c-0.099,0.762-0.367,1.449-0.759,2.031l-1.138-0.989
	l-0.139-0.119c0.053-0.086,0.092-0.186,0.139-0.278c0.137-0.277,0.247-0.573,0.29-0.902c0.051-0.388,0.023-0.769-0.068-1.123
	l1.516-0.664C430.105,301.171,430.169,301.869,430.073,302.581z"/>
</svg>
