<?xml version="1.0" encoding="utf-8"?>
<!-- Generator: Adobe Illustrator 15.0.0, SVG Export Plug-In . SVG Version: 6.00 Build 0)  -->
<!DOCTYPE svg PUBLIC "-//W3C//DTD SVG 1.1//EN" "http://www.w3.org/Graphics/SVG/1.1/DTD/svg11.dtd">
<svg version="1.1" id="Layer_1" xmlns="http://www.w3.org/2000/svg" xmlns:xlink="http://www.w3.org/1999/xlink" x="0px" y="0px"
	 width="24px" height="24px" viewBox="0 904.575 24 24" enable-background="new 0 904.575 24 24" xml:space="preserve">
<path d="M14,924.075v-3c0-0.146-0.047-0.266-0.141-0.359s-0.213-0.141-0.359-0.141h-3c-0.146,0-0.266,0.047-0.359,0.141
	S10,920.93,10,921.075v3c0,0.146,0.047,0.266,0.141,0.359s0.213,0.141,0.359,0.141h3c0.146,0,0.266-0.047,0.359-0.141
	S14,924.221,14,924.075z M18,913.575c0-0.917-0.289-1.766-0.867-2.547s-1.299-1.386-2.164-1.813s-1.75-0.641-2.656-0.641
	c-2.531,0-4.463,1.109-5.797,3.328c-0.156,0.25-0.115,0.469,0.125,0.656l2.063,1.563c0.073,0.063,0.172,0.094,0.297,0.094
	c0.167,0,0.297-0.063,0.391-0.188c0.552-0.708,1-1.188,1.344-1.438c0.354-0.25,0.802-0.375,1.344-0.375
	c0.5,0,0.945,0.136,1.336,0.406S14,913.2,14,913.544c0,0.396-0.104,0.714-0.313,0.953s-0.563,0.474-1.063,0.703
	c-0.656,0.292-1.258,0.742-1.805,1.352S10,917.815,10,918.513v0.563c0,0.146,0.047,0.266,0.141,0.359s0.213,0.141,0.359,0.141h3
	c0.146,0,0.266-0.047,0.359-0.141S14,919.221,14,919.075c0-0.198,0.112-0.456,0.336-0.773s0.508-0.575,0.852-0.773
	c0.333-0.188,0.588-0.336,0.766-0.445s0.417-0.292,0.719-0.547s0.534-0.505,0.695-0.75s0.307-0.56,0.438-0.945
	S18,914.033,18,913.575L18,913.575z M24,916.575c0,2.177-0.537,4.185-1.609,6.023s-2.529,3.294-4.367,4.367
	s-3.846,1.609-6.023,1.609s-4.185-0.536-6.023-1.609s-3.294-2.528-4.367-4.367S0,918.752,0,916.575s0.537-4.185,1.609-6.023
	s2.529-3.294,4.367-4.367s3.846-1.609,6.023-1.609s4.185,0.536,6.023,1.609s3.294,2.528,4.367,4.367S24,914.399,24,916.575z"/>
</svg>
