<?xml version="1.0" encoding="utf-8"?>
<!-- Generator: Adobe Illustrator 16.0.0, SVG Export Plug-In . SVG Version: 6.00 Build 0)  -->
<!DOCTYPE svg PUBLIC "-//W3C//DTD SVG 1.1//EN" "http://www.w3.org/Graphics/SVG/1.1/DTD/svg11.dtd">
<svg version="1.1" id="Layer_1" xmlns="http://www.w3.org/2000/svg" xmlns:xlink="http://www.w3.org/1999/xlink" x="0px" y="0px"
	 width="512px" height="512px" viewBox="0 0 512 512" enable-background="new 0 0 512 512" xml:space="preserve">
<path d="M256,32C132.281,32,32,132.281,32,256s100.281,224,224,224s224-100.281,224-224S379.719,32,256,32z M256,448
	c-105.875,0-192-86.125-192-192S150.125,64,256,64s192,86.125,192,192S361.875,448,256,448z M399.375,292.469
	c2.469-8.469-2.406-17.344-10.906-19.844c-8.469-2.531-17.344,2.438-19.844,10.875C354.125,333.25,307.813,368,256,368
	s-98.125-34.75-112.625-84.5c-2.5-8.438-11.25-13.406-19.875-10.875c-8.469,2.5-13.313,11.375-10.875,19.844
	C131.125,355.781,190.063,400,256,400S380.875,355.781,399.375,292.469z M224,208h-96c-8.844,0-16-7.156-16-16s7.156-16,16-16h96
	c8.844,0,16,7.156,16,16S232.844,208,224,208z M384,208h-96c-8.844,0-16-7.156-16-16s7.156-16,16-16h96c8.844,0,16,7.156,16,16
	S392.844,208,384,208z"/>
</svg>
