<?xml version="1.0" encoding="iso-8859-1"?>
<!-- Generator: Adobe Illustrator 18.1.1, SVG Export Plug-In . SVG Version: 6.00 Build 0)  -->
<svg version="1.1" id="Capa_1" xmlns="http://www.w3.org/2000/svg" xmlns:xlink="http://www.w3.org/1999/xlink" x="0px" y="0px"
	 viewBox="0 0 612 612" style="enable-background:new 0 0 612 612;" xml:space="preserve">
<g>
	<g>
		<path style="fill:#010002;" d="M466.344,232.56c3.267-1.632,5.61-3.978,7.038-7.038s1.53-6.018,0.306-8.874
			s-3.567-4.794-7.035-5.814c-3.471-1.02-6.834-0.714-10.101,0.918l-31.212,14.076c-3.264,1.632-5.712,3.876-7.344,6.732
			s-1.632,5.916,0,9.18c1.224,2.856,3.468,4.794,6.729,5.814c3.267,1.021,6.528,0.714,9.792-0.918L466.344,232.56L466.344,232.56z
			 M459.612,331.704c3.672,0.408,6.834-0.306,9.483-2.144c2.652-1.837,4.389-4.387,5.202-7.648c0.816-3.264,0-6.12-2.448-8.568
			c-2.445-2.446-5.304-3.876-8.565-4.284l-34.272-5.507c-3.672-0.816-6.936-0.306-9.792,1.53c-2.854,1.836-4.689,4.386-5.508,7.65
			c-0.408,3.264,0.51,6.117,2.754,8.565s5.202,4.08,8.874,4.896L459.612,331.704L459.612,331.704z M410.04,156.672
			c4.08-7.344,3.264-13.26-2.448-17.748c-2.854-1.632-5.916-2.04-9.18-1.224s-5.916,2.856-7.956,6.12l-18.36,29.376
			c-2.04,3.264-2.854,6.426-2.445,9.486c0.405,3.06,1.836,5.61,4.281,7.65c2.856,2.04,5.916,2.55,9.183,1.53
			c3.264-1.021,5.916-3.162,7.956-6.426L410.04,156.672L410.04,156.672z M397.8,272.952c0-13.056-2.346-24.582-7.038-34.578
			c-4.689-9.996-11.118-18.36-19.275-25.092c-8.16-6.732-17.853-11.832-29.07-15.3c-11.22-3.468-23.358-5.202-36.414-5.202h-0.612
			c-26.112,0-47.838,6.834-65.178,20.502s-26.01,33.558-26.01,59.67v2.448c0,0.408,0.204,0.816,0.612,1.224
			c0,2.856,0.204,5.61,0.612,8.262s0.816,5.406,1.224,8.262c2.04,10.608,5.712,21.42,11.016,32.436s11.016,22.848,17.136,35.496
			c4.08,8.568,6.936,16.218,8.568,22.95c1.632,6.729,2.958,12.546,3.978,17.439c1.02,4.896,2.04,8.772,3.06,11.628
			s3.162,4.488,6.426,4.896h78.336c2.856-0.408,4.896-2.04,6.12-4.896c1.224-2.854,2.244-6.729,3.06-11.628
			c0.816-4.896,2.04-10.71,3.672-17.439c1.635-6.732,4.488-14.382,8.568-22.95c6.528-12.648,12.444-24.48,17.748-35.496
			s8.977-21.828,11.016-32.436c0.408-2.856,0.816-5.61,1.227-8.262c0.408-2.652,0.609-5.406,0.609-8.262V275.4
			c0-0.408,0.104-0.816,0.309-1.224C397.698,273.768,397.8,273.36,397.8,272.952z M352.512,437.58c0-4.08-2.04-6.12-6.12-6.12
			h-80.784c-4.08,0-6.12,2.04-6.12,6.12v14.076c0,4.08,2.04,6.12,6.12,6.12h80.784c4.08,0,6.12-2.04,6.12-6.12V437.58z
			 M352.512,477.36c0-4.488-2.04-6.732-6.12-6.732h-80.784c-4.08,0-6.12,2.244-6.12,6.732v14.073c0,4.08,2.04,6.12,6.12,6.12h80.784
			c4.08,0,6.12-2.04,6.12-6.12V477.36z M204.408,138.924c-2.448,2.04-3.978,4.692-4.59,7.956s0.102,6.528,2.142,9.792l18.972,28.764
			c2.04,3.264,4.692,5.406,7.956,6.426c3.264,1.02,6.324,0.51,9.18-1.53c2.448-2.04,3.876-4.59,4.284-7.65
			c0.408-3.06-0.408-6.222-2.448-9.486l-18.36-29.376c-2.04-3.264-4.692-5.304-7.956-6.12
			C210.324,136.884,207.264,137.292,204.408,138.924z M186.66,326.196c3.672-0.816,6.63-2.448,8.874-4.896
			c2.244-2.448,3.162-5.304,2.754-8.565c-0.816-3.267-2.652-5.814-5.508-7.65s-6.12-2.346-9.792-1.53l-34.272,5.508
			c-3.264,0.407-6.12,1.837-8.568,4.283c-2.448,2.448-3.264,5.307-2.448,8.568c0.816,3.264,2.55,5.812,5.202,7.648
			c2.652,1.837,5.814,2.552,9.486,2.144L186.66,326.196L186.66,326.196z M138.312,216.648c-1.224,2.856-1.122,5.814,0.306,8.874
			s3.774,5.406,7.038,7.038l31.824,14.076c3.264,1.632,6.528,1.938,9.792,0.918s5.508-2.958,6.732-5.814
			c1.632-3.264,1.632-6.324,0-9.18s-4.08-5.1-7.344-6.732l-31.212-14.076c-3.264-1.632-6.63-1.938-10.098-0.918
			C141.882,211.854,139.536,213.792,138.312,216.648z M294.984,162.18c0,3.672,1.122,6.834,3.366,9.486
			c2.244,2.652,4.998,3.978,8.261,3.978c3.265,0,5.917-1.326,7.957-3.978s3.06-5.814,3.06-9.486v-34.272
			c0-3.672-1.02-6.834-3.06-9.486s-4.692-3.978-7.957-3.978c-3.263,0-6.02,1.326-8.261,3.978c-2.244,2.652-3.366,5.814-3.366,9.486
			V162.18z M306,0c42.024,0,81.702,8.058,119.034,24.174s69.768,37.944,97.308,65.484s49.368,59.976,65.484,97.308
			S612,263.976,612,306c0,28.152-3.672,55.284-11.016,81.396c-7.347,26.109-17.646,50.487-30.906,73.134
			c-13.26,22.644-29.172,43.248-47.736,61.812c-18.562,18.564-39.168,34.479-61.812,47.736
			c-22.646,13.26-47.022,23.562-73.136,30.906C361.284,608.328,334.152,612,306,612s-55.284-3.672-81.396-11.016
			c-26.112-7.347-50.49-17.646-73.134-30.906s-43.248-29.172-61.812-47.736c-18.564-18.562-34.476-39.168-47.736-61.812
			c-13.26-22.646-23.562-47.022-30.906-73.135C3.672,361.284,0,334.152,0,306s3.672-55.284,11.016-81.396
			s17.646-50.49,30.906-73.134s29.172-43.248,47.736-61.812s39.168-34.476,61.812-47.736s47.022-23.562,73.134-30.906
			S277.848,0,306,0z"/>
	</g>
</g>
<g>
</g>
<g>
</g>
<g>
</g>
<g>
</g>
<g>
</g>
<g>
</g>
<g>
</g>
<g>
</g>
<g>
</g>
<g>
</g>
<g>
</g>
<g>
</g>
<g>
</g>
<g>
</g>
<g>
</g>
</svg>
