<?xml version="1.0" encoding="utf-8"?>
<!-- Generator: Adobe Illustrator 15.0.0, SVG Export Plug-In . SVG Version: 6.00 Build 0)  -->
<!DOCTYPE svg PUBLIC "-//W3C//DTD SVG 1.1//EN" "http://www.w3.org/Graphics/SVG/1.1/DTD/svg11.dtd">
<svg version="1.1" id="Layer_1" xmlns="http://www.w3.org/2000/svg" xmlns:xlink="http://www.w3.org/1999/xlink" x="0px" y="0px"
	 width="166.23px" height="36px" viewBox="0 0 166.23 36" style="enable-background:new 0 0 166.23 36;" xml:space="preserve">
<g>
	<path d="M28,31c0,0,2.23-11.7,2.71-22.31c0.33-7.23-4.01-10.67-9-6.36c-4.98,4.3-8.79,8.33-8.81,8.36c0.83-6.5,3.16-8.55,3.16-8.55
		L0,0.44v2.25l4.38,1.37c0,0-2.1,18.67,2.55,25.73c-3.65-0.09-4.56-0.09-4.56-0.09v2.19h12.32c-1.18-5.22-1.78-9.58-1.99-13.2
		c2.03-3.61,4.08-5.53,4.08-5.53s5.66-4.11,5.32,4.65c-0.13,3.27-0.2,6.89-1.09,11.65C20.56,31.86,20,33.4,20,33.4L31.63,36v-2.87
		L28,31z"/>
	<path d="M60.21,21.38c0,0,3.18-11.22-8.98-11.81c-2.48-0.12-6.98,0-6.98,0s-10.43-0.14-10.84,9.32C33,28.36,39.91,31.6,41.15,32.22
		c1.24,0.62,12.57,3.45,16.03-2c3.45-5.46,0.9-5.25-2.62-6.08c-3.52-0.83-15.46,0.1-3.11,5.87c3.34,1.8-2.9,3.66-5.94,0.83
		s-4.63-6.35-2.69-12.09L60.21,21.38z M44.65,12.27c3.04-0.51,4.57-0.14,6.1,0.06c4.7,0.61,3.51,4.39-2.9,4.29
		C42.67,16.53,38.87,13.5,44.65,12.27z"/>
	<path d="M76.79,12.01c0,0-5.53,4.81-5.25,12.89s8.29,6.36,8.22,0c-0.07-6.36-0.28-16.85-0.28-16.85l10.29-0.07
		c0,0-5.32,2.49-3.52,6.98c1.72,4.3,1.16,3.01,2.76,6c2.56,4.77,9.59,7.86,5.87-0.96c-2.95-7-4.35-7.98-4.35-7.98h13.68l-5.73,2.3
		c0,0,4.21,3.82,5.25,7.75c1.04,3.94-1.56,13.49-10.64,7.67c-6.27-4.02-6.84-6.56-6.84-6.56s1.25,13.3-11.54,10.34
		c-8.04-1.86-10-4.57-10.78-5.22c-0.47-0.4-4.28-6.22,3.66-14.58c-4.85-2.35,0,0-4.85-2.35c1.6-3.38,1.6-3.38,1.6-3.38L76.79,12.01z
		"/>
	<path d="M118,0.19c0,0-11.77,1.46-11.59,15.42c0.18,13.96,5.93,16.96,11.59,18.33c5.66,1.37,15.16-0.73,14.6-11.95
		c-0.09-1.85-1.26,0.32-1.73,1.28c-0.29,0.6-5.53,11.05-13.41,0.55c-2.46-3.28-2.52-11.08-2.01-14.78
		c0.48-3.47,2.26-10.77,13.41-4.01c3.01,1.82-3.24,2.55-4.38,2.95c-0.4,0.14-9.25,3.04-0.87,5.93c3.6,1.25,7.44,0.79,7.44,0.79
		s3.65-0.18,3.6-5.2C134.57,2.72,129.86-0.9,118,0.19z"/>
	<path d="M156.29,14.11c-4.24,0.27-7.69-0.42-9.3-6.16c-1.23-4.35,2.32-5.59,3.13-5.7c2.93-0.42,2.82-0.39,3.55-0.46
		c2.8-0.29,5.13,1.17,2.64,2.51c-13.68,6.4-0.46,7.42,3.44,6.5c3.9-0.92,6.73-0.69,2.91-6.73c-2.25-3.56-7.48-3.85-11.74-3.78
		c-7.63,0.13-14.05,4.03-13.64,10.46c0.41,6.43,5.88,5.13,10.95,4.99c5.06-0.14,6.77,1.98,7.25,7.66c0.48,5.68-4.72,7.44-4.72,7.44
		s-0.99,0.53-2.44,0.79c-3.41,0.52-6.59-1.12-3.61-2.72c15.26-7.13,0.51-8.28-3.84-7.26c-4.35,1.02-7.51,0.77-3.24,7.51
		c2.52,3.97,8.41,4.39,13.14,3.9c10.2-0.67,14.51-4.05,15.39-11.74C167.03,13.65,160.53,13.83,156.29,14.11z"/>
</g>
</svg>
