<?xml version="1.0" encoding="utf-8"?>
<!-- Generator: Adobe Illustrator 15.0.0, SVG Export Plug-In . SVG Version: 6.00 Build 0)  -->
<!DOCTYPE svg PUBLIC "-//W3C//DTD SVG 1.1//EN" "http://www.w3.org/Graphics/SVG/1.1/DTD/svg11.dtd">
<svg version="1.1" id="Layer_1" xmlns="http://www.w3.org/2000/svg" xmlns:xlink="http://www.w3.org/1999/xlink" x="0px" y="0px"
	 width="36.26px" height="8.19px" viewBox="0 0 36.26 8.19" style="enable-background:new 0 0 36.26 8.19;" xml:space="preserve">
<style type="text/css">
<![CDATA[
	.st0{stroke:#000000;stroke-width:0.25;stroke-miterlimit:10;}
]]>
</style>
<g>
	<path class="st0" d="M6.12,7.73C5.81,7.88,5.08,8.06,4.16,8.06c-2.66,0-4.03-1.67-4.03-3.86c0-2.63,1.87-4.08,4.2-4.08
		c0.9,0,1.59,0.17,1.9,0.34L5.86,1.84C5.52,1.69,5.02,1.55,4.4,1.55c-1.37,0-2.44,0.83-2.44,2.55c0,1.54,0.91,2.51,2.46,2.51
		c0.54,0,1.11-0.1,1.46-0.25L6.12,7.73z"/>
	<path class="st0" d="M12.58,7.73c-0.31,0.15-1.04,0.33-1.96,0.33c-2.66,0-4.03-1.67-4.03-3.86c0-2.63,1.87-4.08,4.2-4.08
		c0.9,0,1.59,0.17,1.9,0.34l-0.37,1.37c-0.34-0.15-0.83-0.29-1.46-0.29c-1.37,0-2.44,0.83-2.44,2.55c0,1.54,0.91,2.51,2.46,2.51
		c0.54,0,1.11-0.1,1.46-0.25L12.58,7.73z"/>
	<path class="st0" d="M19.03,7.73c-0.31,0.15-1.04,0.33-1.96,0.33c-2.66,0-4.03-1.67-4.03-3.86c0-2.63,1.87-4.08,4.2-4.08
		c0.9,0,1.59,0.17,1.9,0.34l-0.37,1.37c-0.34-0.15-0.83-0.29-1.46-0.29c-1.37,0-2.44,0.83-2.44,2.55c0,1.54,0.91,2.51,2.46,2.51
		c0.54,0,1.11-0.1,1.46-0.25L19.03,7.73z"/>
	<path class="st0" d="M22.1,5.96l-0.55,1.98h-1.79l2.34-7.7h2.28l2.4,7.7h-1.89L24.3,5.96H22.1z M24.05,4.66l-0.48-1.63
		C23.43,2.57,23.3,2,23.18,1.54h-0.02C23.04,2,22.93,2.58,22.8,3.02l-0.46,1.63H24.05z"/>
	<path class="st0" d="M34.31,4.99c-0.04-0.93-0.07-2.04-0.07-3.16h-0.02c-0.25,0.98-0.57,2.08-0.87,2.98l-0.94,3h-1.36l-0.82-2.97
		c-0.25-0.91-0.5-2.01-0.7-3.01h-0.02c-0.04,1.04-0.08,2.23-0.13,3.19l-0.15,2.92h-1.61l0.49-7.7h2.32l0.75,2.57
		c0.25,0.89,0.48,1.85,0.65,2.75h0.04c0.21-0.89,0.47-1.91,0.73-2.76l0.81-2.56h2.28l0.41,7.7h-1.69L34.31,4.99z"/>
</g>
</svg>
