<?xml version="1.0" encoding="utf-8"?>
<!-- Generator: Adobe Illustrator 15.0.0, SVG Export Plug-In . SVG Version: 6.00 Build 0)  -->
<!DOCTYPE svg PUBLIC "-//W3C//DTD SVG 1.1//EN" "http://www.w3.org/Graphics/SVG/1.1/DTD/svg11.dtd">
<svg version="1.1" id="OSCam" xmlns="http://www.w3.org/2000/svg" xmlns:xlink="http://www.w3.org/1999/xlink" x="0px" y="0px"
	 width="40px" height="40px" viewBox="0 0 40 40" style="enable-background:new 0 0 40 40;" xml:space="preserve">
<g>
	<path d="M11.28,6.81c-1.87,0-2.99,0.94-3.52,2.47c-0.22,0.69-0.33,1.64-0.33,4.34c0,2.67,0.11,3.64,0.33,4.34
		c0.53,1.53,1.65,2.47,3.52,2.47c1.9,0,3.01-0.95,3.54-2.47c0.22-0.69,0.33-1.67,0.33-4.34c0-2.7-0.11-3.64-0.33-4.34
		C14.29,7.76,13.17,6.81,11.28,6.81z"/>
	<path d="M38,2H2v23.55h36v-2.46c-2.07-2.54-3.31-5.78-3.31-9.31c0-3.53,1.24-6.77,3.31-9.31V2z M18,18.82
		c-0.98,3-3.43,4.56-6.73,4.56c-3.27,0-5.72-1.56-6.7-4.56c-0.39-1.17-0.5-2.22-0.5-5.2c0-2.98,0.11-4.03,0.5-5.2
		c0.98-3,3.43-4.56,6.7-4.56c3.29,0,5.75,1.56,6.73,4.56c0.39,1.17,0.5,2.22,0.5,5.2S18.39,17.65,18,18.82z M26.44,23.37
		c-2.79,0-5.5-1.11-6.98-2.5c-0.11-0.11-0.17-0.28-0.06-0.42l1.73-2c0.11-0.14,0.28-0.14,0.39-0.03c1.23,0.97,3.04,2,5.16,2
		c2.26,0,3.57-1.14,3.57-2.72c0-1.36-0.84-2.25-3.46-2.61l-1-0.14c-3.66-0.5-5.72-2.25-5.72-5.39c0-3.42,2.51-5.7,6.42-5.7
		c2.37,0,4.63,0.75,6.14,1.89c0.14,0.11,0.17,0.22,0.06,0.39L31.35,8.2c-0.11,0.14-0.25,0.17-0.39,0.08c-1.54-1-2.96-1.47-4.55-1.47
		c-1.93,0-2.99,1.06-2.99,2.53c0,1.31,0.92,2.2,3.49,2.56l1.01,0.14c3.65,0.5,5.67,2.22,5.67,5.48
		C33.58,20.87,31.15,23.37,26.44,23.37z"/>
	<path d="M2.32,35.05C2.11,34.43,2,33.66,2,32.56c0-1.1,0.11-1.87,0.32-2.49c0.63-1.93,2.31-2.94,4.51-2.94
		c1.79,0,3.2,0.82,3.95,1.96c0.06,0.11,0.06,0.22-0.04,0.3l-1.88,1.23c-0.13,0.09-0.24,0.06-0.32-0.04c-0.45-0.62-0.91-0.9-1.66-0.9
		c-0.8,0-1.38,0.37-1.62,1.12c-0.15,0.43-0.19,0.92-0.19,1.79c0,0.86,0.04,1.35,0.19,1.78c0.24,0.75,0.82,1.12,1.62,1.12
		c0.76,0,1.21-0.28,1.66-0.9c0.09-0.11,0.19-0.13,0.32-0.04l1.88,1.22c0.11,0.09,0.11,0.19,0.04,0.3C10.03,37.18,8.63,38,6.84,38
		C4.63,38,2.95,36.99,2.32,35.05z"/>
	<path d="M18.02,37.76c-0.13,0-0.22-0.09-0.22-0.22v-0.69h-0.02C17.24,37.55,16.33,38,14.91,38c-1.86,0-3.48-0.97-3.48-3.18
		c0-2.3,1.75-3.35,4.34-3.35h1.86c0.09,0,0.13-0.04,0.13-0.13v-0.39c0-0.97-0.48-1.42-2.14-1.42c-1.06,0-1.83,0.3-2.33,0.67
		c-0.11,0.09-0.22,0.06-0.28-0.04l-0.97-1.7c-0.06-0.13-0.04-0.24,0.06-0.3c0.88-0.62,2.16-1.03,3.89-1.03
		c3.41,0,4.64,1.16,4.64,3.76v6.67c0,0.13-0.09,0.22-0.22,0.22H18.02z M17.76,34.3v-0.71c0-0.09-0.04-0.13-0.13-0.13h-1.47
		c-1.27,0-1.86,0.37-1.86,1.18c0,0.73,0.52,1.1,1.51,1.1C17.11,35.74,17.76,35.27,17.76,34.3z"/>
	<path d="M34.93,37.76c-0.13,0-0.21-0.09-0.21-0.22v-5.98c0-1.14-0.56-1.89-1.64-1.89c-1.04,0-1.62,0.75-1.62,1.89v5.98
		c0,0.13-0.09,0.22-0.22,0.22h-2.59c-0.13,0-0.22-0.09-0.22-0.22v-5.98c0-1.14-0.54-1.89-1.62-1.89c-1.04,0-1.64,0.75-1.64,1.89
		v5.98c0,0.13-0.09,0.22-0.22,0.22h-2.59c-0.13,0-0.22-0.09-0.22-0.22v-9.98c0-0.13,0.09-0.21,0.22-0.21h2.59
		c0.13,0,0.22,0.09,0.22,0.21v0.73h0.02c0.48-0.65,1.36-1.18,2.7-1.18c1.27,0,2.2,0.45,2.81,1.31h0.02
		c0.78-0.82,1.81-1.31,3.28-1.31c2.46,0,3.73,1.57,3.73,3.87v6.56c0,0.13-0.09,0.22-0.22,0.22H34.93L34.93,37.76z"/>
</g>
</svg>
