<?xml version="1.0" encoding="utf-8"?>
<!-- Generator: Adobe Illustrator 15.0.0, SVG Export Plug-In . SVG Version: 6.00 Build 0)  -->
<!DOCTYPE svg PUBLIC "-//W3C//DTD SVG 1.1//EN" "http://www.w3.org/Graphics/SVG/1.1/DTD/svg11.dtd">
<svg version="1.1" id="Layer_1" xmlns="http://www.w3.org/2000/svg" xmlns:xlink="http://www.w3.org/1999/xlink" x="0px" y="0px"
	 width="36px" height="8.45px" viewBox="0 0 36 8.45" style="enable-background:new 0 0 36 8.45;" xml:space="preserve">
<g>
	<circle cx="9.82" cy="4.59" r="1.32"/>
	<polygon points="7.94,7.02 7.94,4.98 7.94,4.87 6.63,3.55 6.32,3.55 2.38,3.55 2.38,1.79 7.41,1.79 8.84,0.36 2.38,0.36 1.9,0.36 
		0.76,1.5 0.76,1.79 0.76,3.87 1.87,4.98 2.06,4.98 2.38,4.98 6.32,4.98 6.32,7.02 1.43,7.02 0,8.45 6.32,8.45 6.82,8.45 7.94,7.33 
			"/>
	<path d="M19.1,7.35V7.02V5.12V4.94l-0.62-0.62l0.62-0.62V3.69V1.79V1.34l-0.99-0.99h-6.33v0.92v0.51v1.91v1.43v1.91v0.36v1.07H18
		L19.1,7.35z M17.48,7.02h-4.07V5.12h4.07V7.02z M13.41,3.69V1.79h4.07v1.91H13.41z"/>
	<path d="M27.51,1.79V1.52l-1.16-1.16h-0.46h-4.12h-0.6l-1.02,1.02v5.94l1.14,1.14h0.49l0,0h4.12l0,0h0.44l1.18-1.18V1.79z
		 M25.89,7.02h-4.12V1.79h4.12V7.02z"/>
	<polygon points="36,8.45 32.92,4.35 35.59,0.79 34.14,0.02 31.9,3 29.64,0 28.19,0.77 30.88,4.35 27.8,8.45 29.83,8.45 31.9,5.7 
		33.97,8.45 	"/>
</g>
</svg>
