<?xml version="1.0" encoding="utf-8"?>
<!-- Generator: Adobe Illustrator 15.0.0, SVG Export Plug-In . SVG Version: 6.00 Build 0)  -->
<!DOCTYPE svg PUBLIC "-//W3C//DTD SVG 1.1//EN" "http://www.w3.org/Graphics/SVG/1.1/DTD/svg11.dtd">
<svg version="1.1" id="Layer_1" xmlns="http://www.w3.org/2000/svg" xmlns:xlink="http://www.w3.org/1999/xlink" x="0px" y="0px"
	 width="36.25px" height="9.19px" viewBox="0 0 36.25 9.19" style="enable-background:new 0 0 36.25 9.19;" xml:space="preserve">
<style type="text/css">
<![CDATA[
	.st0{stroke:#000000;stroke-width:0.25;stroke-miterlimit:10;}
]]>
</style>
<g>
	<path class="st0" d="M5.02,8.76C4.69,8.93,4.05,9.05,3.34,9.05c-1.96,0-3.21-1.2-3.21-3.1c0-1.77,1.21-3.22,3.47-3.22
		c0.5,0,1.04,0.09,1.44,0.23l-0.3,1.4c-0.22-0.1-0.56-0.19-1.05-0.19c-0.99,0-1.64,0.71-1.62,1.7c0,1.1,0.74,1.7,1.66,1.7
		c0.45,0,0.79-0.07,1.08-0.2L5.02,8.76z"/>
	<path class="st0" d="M11.16,7.46c0,0.57,0.02,1.13,0.1,1.46h-1.7L9.45,8.32H9.41C9.02,8.8,8.4,9.06,7.68,9.06
		c-1.23,0-1.96-0.89-1.96-1.86c0-1.57,1.41-2.32,3.56-2.32V4.81c0-0.33-0.17-0.79-1.1-0.79c-0.62,0-1.28,0.21-1.67,0.46L6.15,3.26
		C6.57,3.02,7.4,2.72,8.51,2.72c2.02,0,2.65,1.19,2.65,2.63V7.46z M9.34,6.06c-0.99,0-1.76,0.23-1.76,0.95
		c0,0.48,0.32,0.72,0.74,0.72c0.46,0,0.85-0.31,0.98-0.7c0.02-0.1,0.04-0.21,0.04-0.32V6.06z"/>
	<path class="st0" d="M12.66,4.8c0-0.76-0.02-1.39-0.05-1.93h1.6l0.07,0.82h0.04c0.26-0.4,0.81-0.97,1.83-0.97
		c0.79,0,1.4,0.41,1.66,1.04h0.02c0.23-0.32,0.5-0.57,0.79-0.74c0.33-0.19,0.71-0.3,1.15-0.3c1.17,0,2.04,0.82,2.04,2.64v3.57H20
		v-3.3c0-0.88-0.29-1.39-0.89-1.39c-0.45,0-0.74,0.3-0.88,0.66c-0.04,0.14-0.06,0.32-0.06,0.48v3.55h-1.83V5.52
		c0-0.76-0.27-1.28-0.88-1.28c-0.48,0-0.77,0.37-0.88,0.67c-0.06,0.15-0.07,0.32-0.07,0.48v3.53h-1.83V4.8z"/>
	<path class="st0" d="M29.2,0.13v6.99c0,0.68,0.03,1.4,0.05,1.81h-1.67l-0.08-0.88h-0.04c-0.37,0.67-1.12,1.02-1.9,1.02
		c-1.44,0-2.59-1.23-2.59-3.11c-0.01-2.05,1.26-3.24,2.71-3.24c0.76,0,1.33,0.27,1.6,0.68h0.03V0.13H29.2z M27.32,5.43
		c0-0.1,0-0.24-0.03-0.35c-0.11-0.5-0.52-0.92-1.1-0.92c-0.87,0-1.3,0.77-1.3,1.72c0,1.03,0.51,1.67,1.29,1.67
		c0.55,0,0.99-0.37,1.1-0.9c0.02-0.14,0.04-0.28,0.04-0.43V5.43z"/>
	<path class="st0" d="M30.82,7.08c0.33,0.19,1.1,0.5,1.87,0.5c0.98,0,1.47-0.47,1.47-1.07c0-0.81-0.79-1.17-1.63-1.17h-0.77V3.99
		h0.74c0.63,0,1.43-0.25,1.43-0.93c0-0.48-0.38-0.84-1.19-0.84c-0.66,0-1.35,0.29-1.67,0.48L30.7,1.34
		c0.48-0.31,1.44-0.61,2.49-0.61c1.71,0,2.67,0.9,2.67,2.01c0,0.85-0.48,1.54-1.48,1.87v0.03c0.97,0.17,1.75,0.9,1.75,1.97
		c0,1.41-1.25,2.46-3.3,2.46c-1.04,0-1.92-0.27-2.39-0.56L30.82,7.08z"/>
</g>
</svg>
