<?xml version="1.0" encoding="utf-8"?>
<!-- Generator: Adobe Illustrator 15.0.0, SVG Export Plug-In . SVG Version: 6.00 Build 0)  -->
<!DOCTYPE svg PUBLIC "-//W3C//DTD SVG 1.1//EN" "http://www.w3.org/Graphics/SVG/1.1/DTD/svg11.dtd">
<svg version="1.1" id="Layer_1" xmlns="http://www.w3.org/2000/svg" xmlns:xlink="http://www.w3.org/1999/xlink" x="0px" y="0px"
	 width="36px" height="8px" viewBox="0 0 36 8" style="enable-background:new 0 0 36 8;" xml:space="preserve">
<style type="text/css">
<![CDATA[
	.st0{fill:#020202;}
]]>
</style>
<g>
	<polygon class="st0" points="28.35,5.03 28.37,5.16 28.42,5.29 28.49,5.4 28.54,5.46 28.6,5.52 28.66,5.57 28.73,5.62 28.81,5.65 
		28.89,5.67 28.98,5.7 29.06,5.7 29.18,5.71 29.29,5.7 29.4,5.68 29.5,5.65 29.6,5.61 29.7,5.55 29.79,5.49 29.87,5.41 29.95,5.33 
		30.01,5.23 30.06,5.14 30.11,5.04 30.14,4.93 30.16,4.81 30.17,4.71 30.16,4.59 29.99,4.7 29.83,4.78 29.74,4.8 29.67,4.81 
		29.62,4.81 29.58,4.8 29.53,4.78 29.5,4.74 29.47,4.69 29.45,4.64 29.43,4.51 29.42,4.38 29.42,1.96 29.39,1.7 29.36,1.58 
		29.27,1.34 29.22,1.22 29.16,1.12 29.09,1.02 29.01,0.92 28.92,0.82 28.83,0.74 28.73,0.66 28.63,0.59 28.52,0.53 28.4,0.47 
		28.25,0.4 28.09,0.34 27.93,0.29 27.76,0.25 27.6,0.22 27.42,0.21 27.25,0.2 27.08,0.2 26.9,0.21 26.74,0.24 26.57,0.28 26.4,0.32 
		26.24,0.37 26.08,0.44 25.93,0.52 25.78,0.6 25.6,0.73 25.43,0.88 25.36,0.96 25.29,1.05 25.23,1.14 25.17,1.24 25.12,1.34 
		25.08,1.44 25.04,1.55 24.99,1.76 24.97,1.88 24.96,1.98 24.96,5.54 26.04,5.54 26.04,2.13 26.05,2.04 26.07,1.94 26.09,1.85 
		26.13,1.77 26.18,1.69 26.23,1.61 26.31,1.55 26.38,1.49 26.55,1.4 26.74,1.32 26.94,1.28 27.13,1.27 27.35,1.27 27.55,1.3 
		27.76,1.36 27.94,1.45 28.01,1.49 28.07,1.54 28.14,1.6 28.19,1.66 28.28,1.8 28.33,1.95 28.35,2.13 28.35,3.23 26.34,3.23 
		26.34,4.1 28.35,4.1 28.35,4.91 	"/>
	<polygon class="st0" points="16.24,2.91 16.12,3 16.01,3.1 15.91,3.23 15.82,3.35 15.75,3.48 15.69,3.63 15.64,3.79 15.62,3.94 
		15.62,4.11 15.63,4.27 15.67,4.43 15.71,4.58 15.78,4.73 15.87,4.87 15.96,4.99 16.06,5.11 16.17,5.22 16.3,5.31 16.42,5.4 
		16.56,5.47 16.7,5.54 16.85,5.58 17.1,5.64 17.35,5.67 17.6,5.7 17.84,5.71 18.13,5.69 18.42,5.65 18.7,5.59 18.97,5.49 
		19.23,5.37 19.48,5.23 19.72,5.07 19.94,4.88 20.04,4.78 20.13,4.68 20.24,4.83 20.37,4.98 20.52,5.11 20.68,5.22 20.86,5.33 
		21.05,5.42 21.25,5.5 21.45,5.56 21.66,5.61 21.86,5.66 22.07,5.68 22.29,5.69 22.5,5.69 22.71,5.67 22.92,5.64 23.12,5.6 
		23.33,5.54 23.53,5.47 23.73,5.39 23.92,5.29 24.07,5.18 24.22,5.06 24.34,4.91 24.46,4.76 24.55,4.59 24.64,4.42 24.69,4.23 
		24.73,4.04 24.76,3.86 24.76,3.67 24.74,3.48 24.7,3.3 24.64,3.13 24.55,2.96 24.45,2.8 24.33,2.67 24.23,2.58 24.13,2.51 
		24.02,2.44 23.92,2.37 23.8,2.31 23.68,2.27 23.44,2.2 23.27,2.17 23.11,2.15 22.94,2.14 22.76,2.16 22.59,2.18 22.44,2.22 
		22.27,2.27 22.12,2.34 21.96,2.42 21.82,2.54 21.77,2.6 21.71,2.67 21.62,2.82 21.6,2.9 21.58,2.98 21.56,3.05 21.55,3.14 
		21.57,3.3 21.59,3.38 21.61,3.46 21.64,3.53 21.65,3.47 21.67,3.42 21.7,3.38 21.74,3.34 21.84,3.26 21.97,3.21 22.09,3.17 
		22.21,3.15 22.34,3.13 22.47,3.13 22.66,3.13 22.84,3.15 23.03,3.18 23.21,3.23 23.31,3.27 23.41,3.33 23.49,3.41 23.57,3.5 
		23.61,3.6 23.64,3.7 23.65,3.81 23.64,3.92 23.63,4.02 23.59,4.12 23.53,4.22 23.46,4.29 23.36,4.37 23.27,4.44 23.15,4.5 
		23.04,4.54 22.9,4.58 22.76,4.6 22.62,4.62 22.47,4.63 22.33,4.63 22.19,4.61 22.05,4.59 21.91,4.55 21.68,4.49 21.56,4.42 
		21.39,4.27 21.31,4.19 21.24,4.1 21.18,4 21.13,3.9 21.08,3.79 21.05,3.69 21,3.47 20.97,3.25 20.96,3.03 20.98,2.81 21.02,2.59 
		21.08,2.37 21.15,2.17 21.26,1.97 21.32,1.87 21.4,1.76 21.49,1.68 21.59,1.6 21.69,1.52 21.81,1.47 21.93,1.42 22.05,1.38 
		22.17,1.37 22.3,1.36 24.26,1.36 24.26,0.37 21.9,0.37 21.7,0.39 21.5,0.43 21.3,0.49 21.12,0.58 20.94,0.67 20.77,0.78 
		20.62,0.92 20.49,1.06 20.37,1.2 20.26,1.36 20.17,1.52 20.08,1.69 20,1.86 19.94,2.04 19.88,2.23 19.84,2.41 19.8,2.59 
		19.78,2.78 19.76,3.15 19.77,3.34 19.8,3.72 19.84,3.99 19.88,4.27 19.69,4.38 19.49,4.49 19.28,4.58 19.07,4.65 18.9,4.69 
		18.73,4.73 18.56,4.75 18.4,4.77 18.23,4.78 18.05,4.77 17.89,4.76 17.72,4.74 17.55,4.7 17.39,4.64 17.24,4.56 17.1,4.47 
		16.98,4.34 16.93,4.27 16.88,4.19 16.85,4.12 16.84,4.06 16.83,3.98 16.84,3.91 16.85,3.84 16.89,3.78 16.93,3.71 16.98,3.66 
		17.08,3.59 17.19,3.54 17.3,3.49 17.42,3.47 17.59,3.45 19.42,3.44 19.42,2.56 17.65,2.56 17.5,2.52 17.36,2.48 17.23,2.41 
		17.13,2.34 17.05,2.25 16.99,2.16 16.95,2.04 16.93,1.97 16.93,1.9 16.97,1.76 17.01,1.69 17.04,1.63 17.09,1.57 17.14,1.53 
		17.24,1.47 17.36,1.42 17.47,1.38 17.59,1.37 17.73,1.36 19.69,1.36 19.69,0.37 17.28,0.37 17.04,0.37 16.81,0.4 16.57,0.47 
		16.35,0.56 16.25,0.63 16.15,0.7 16.07,0.78 15.99,0.88 15.91,0.98 15.85,1.08 15.8,1.19 15.77,1.32 15.73,1.43 15.72,1.55 
		15.71,1.68 15.72,1.8 15.78,2.04 15.82,2.15 15.87,2.26 15.93,2.35 15.99,2.44 16.07,2.51 16.14,2.58 16.23,2.64 16.31,2.69 
		16.41,2.73 16.52,2.76 16.37,2.83 	"/>
	<path class="st0" d="M35.99,0.58l-0.02-0.12l-0.04-0.12l-0.04-0.12L35.84,0.1L35.78,0l-0.04,0.07L35.7,0.14L35.64,0.2l-0.06,0.04
		l-0.17,0.07l-0.16,0.03L35,0.36l-0.24,0h-3.64l-0.21,0.11l-0.2,0.13l-0.19,0.15l-0.18,0.16L30.19,1.1l-0.15,0.19l-0.12,0.2
		L29.81,1.7l-0.05,0.13l-0.05,0.14l-0.05,0.28l-0.01,0.14v0.15l0.01,0.14l0.02,0.14l0.03,0.14l0.05,0.13l0.06,0.13l0.07,0.12
		l0.16,0.21l0.16,0.2l0.18,0.2l0.19,0.18l0.23,0.23l0.22,0.24l0.21,0.24l0.21,0.25l0.11,0.14l0.09,0.15l0.08,0.16l0.07,0.16
		l0.03,0.1l0.03,0.1l0.01,0.09v0.21l-0.02,0.09L31.8,6.37l-0.04,0.09L31.7,6.61l-0.09,0.15L31.5,6.89L31.38,7l-0.09,0.05L31.2,7.09
		l-0.1,0.03l-0.1,0.03l-0.1,0.01l-0.1,0l-0.1,0l-0.1-0.02l-0.1-0.02l-0.1-0.03l-0.09-0.05l-0.08-0.05l-0.08-0.06l-0.07-0.07
		l-0.06-0.07L29.98,6.7l-0.07-0.16l-0.03-0.08l-0.02-0.08V6.21l0.04-0.17H5.35L4.41,6.03l-0.95,0L3.04,6.05L2.62,6.1L2.2,6.17
		l-0.42,0.1L1.55,6.35l-0.22,0.1V3.39l0.43,0.48l0.98,1.14l0.15,0.15l0.16,0.13L3.23,5.4l0.18,0.1l0.2,0.07l0.2,0.05l0.21,0.03
		l0.2,0.01h0.11l0.11-0.01l0.11-0.02l0.1-0.03l0.11-0.04l0.1-0.05l0.1-0.06L5.04,5.4l0.08-0.08l0.07-0.09l0.07-0.1l0.05-0.1v0.46
		H6.4V2.04l0.03-0.11l0.03-0.1l0.05-0.1l0.06-0.09l0.07-0.08l0.08-0.07l0.1-0.06l0.1-0.05l0.12-0.05l0.11-0.04l0.13-0.03l0.13-0.01
		h0.12l0.12,0.01L7.8,1.27l0.17,0.05l0.18,0.07l0.16,0.1l0.08,0.06l0.06,0.06L8.5,1.68l0.05,0.07l0.04,0.06l0.05,0.15l0.02,0.08
		l0.01,0.08v1.09H6.72v0.86h1.93V5l0.01,0.11l0.03,0.1l0.02,0.1l0.05,0.11l0.06,0.1l0.09,0.07l0.1,0.06l0.1,0.04l0.11,0.02l0.1,0.01
		l0.11,0L9.58,5.7l0.12-0.03l0.13-0.04l0.12-0.05l0.12-0.05l0.11-0.06l0.11-0.08l0.1-0.08l0.06-0.06l0.05-0.07l0.02-0.04v0.41h1.08
		V1.36h1.38l0.12,0.01l0.13,0.02l0.13,0.04l0.11,0.05l0.12,0.07l0.1,0.08l0.1,0.1l0.08,0.11l0.06,0.1l0.05,0.1l0.05,0.11l0.05,0.11
		l0.03,0.11l0.03,0.11l0.02,0.12l0.01,0.11l0.02,0.18V3.1L14.2,3.28l-0.02,0.18l-0.03,0.18l-0.05,0.18l-0.06,0.17l-0.07,0.17
		L13.9,4.3L13.8,4.43L13.7,4.55l-0.12,0.1l-0.14,0.09l-0.15,0.07l-0.15,0.05l-0.16,0.03l-0.16,0.02h-0.17l-0.16-0.02l-0.16-0.04
		l-0.08-0.03l-0.08-0.04l-0.08-0.05L12,4.68l0.01,0.86l0.26,0.08l0.26,0.06l0.26,0.03l0.27,0l0.27-0.01l0.26-0.04l0.26-0.07
		l0.25-0.09l0.22-0.13l0.21-0.15l0.19-0.17l0.09-0.1l0.16-0.2l0.07-0.11l0.12-0.23l0.06-0.11l0.04-0.12l0.04-0.12l0.04-0.12
		l0.05-0.26L15.4,3.4l0.02-0.27V2.87L15.4,2.59l-0.04-0.27l-0.05-0.26L15.25,1.8l-0.09-0.22l-0.12-0.21l-0.14-0.19l-0.16-0.19
		l-0.18-0.17l-0.19-0.14l-0.21-0.13l-0.22-0.1L13.8,0.42l-0.13-0.03l-0.14-0.02h-2.97v4.27L10.54,4.7l-0.02,0.05L10.49,4.8
		l-0.06,0.05L10.39,4.9l-0.07,0.03l-0.07,0.01h-0.07l-0.07,0l-0.06-0.02L9.98,4.88L9.92,4.85L9.87,4.8L9.82,4.75L9.79,4.7L9.75,4.6
		L9.74,4.5V1.97L9.71,1.73L9.68,1.61L9.64,1.49l-0.1-0.22L9.48,1.16l-0.06-0.1l-0.08-0.1L9.25,0.86L9.17,0.78L8.98,0.63L8.87,0.56
		L8.75,0.51L8.6,0.43L8.45,0.37L8.29,0.32L8.13,0.28L7.97,0.25L7.8,0.23L7.63,0.21l-0.16,0l-0.17,0L7.14,0.23L6.97,0.26L6.81,0.3
		L6.49,0.4l-0.3,0.14L6,0.66L5.91,0.73L5.82,0.81L5.74,0.89L5.6,1.07l-0.06,0.1l-0.05,0.1L5.4,1.48l-0.03,0.1L5.35,1.7L5.33,1.81
		L5.32,1.92V4.6L5.3,4.68L5.27,4.75L5.24,4.81L5.18,4.88L5.11,4.93L5.04,4.98L4.97,5.01L4.89,5.04L4.81,5.05H4.72L4.61,5.03L4.5,5
		L4.4,4.96L4.3,4.91l-0.14-0.1L4.02,4.7L3.31,4.06l0.13-0.01l0.13-0.02L3.7,3.99l0.12-0.04L3.95,3.9l0.11-0.05l0.12-0.07l0.1-0.08
		l0.1-0.08l0.1-0.09l0.09-0.1l0.16-0.21L4.79,3.1l0.05-0.11l0.05-0.13l0.04-0.12l0.03-0.13l0.02-0.13l0.01-0.13V2.09L4.97,1.96
		L4.95,1.83L4.91,1.7L4.81,1.46L4.74,1.35L4.67,1.23L4.51,1.03l-0.1-0.09L4.28,0.81L4.12,0.69l-0.18-0.1L3.76,0.5L3.58,0.43
		L3.39,0.38L3.19,0.35L3,0.33L2.78,0.32L0,0.33L0.05,0.4L0.1,0.47l0.04,0.07l0.03,0.08L0.2,0.76l0.03,0.16l0.02,0.16l0.01,0.16v0.08
		l0.01,6.06l0.11-0.06l0.11-0.05l0.25-0.08l0.34-0.07l0.35-0.05l0.34-0.04L2.13,7l1.09-0.03l1.1,0l25.17,0.01l0.06,0.11l0.07,0.1
		l0.07,0.1l0.08,0.1l0.09,0.09l0.1,0.08l0.1,0.08l0.1,0.07l0.21,0.12l0.23,0.09l0.24,0.06L31.07,8l0.25,0l0.24-0.03l0.24-0.06
		l0.23-0.1l0.22-0.12l0.1-0.07l0.1-0.07l0.09-0.08l0.09-0.09l0.08-0.09l0.08-0.1l0.06-0.1l0.06-0.11l0.2,0l0.2-0.02l0.19-0.04
		l0.2-0.06l0.11-0.05l0.11-0.07l0.09-0.07l0.09-0.09l0.07-0.1l0.06-0.1l0.05-0.11l0.04-0.11l0.04-0.18l0.02-0.18l-0.03,0.06
		l-0.05,0.04L34.2,5.92l-0.07,0.04L33.93,6l-0.2,0.03l-0.32,0L33.1,6.02l-0.01-0.16l-0.02-0.17l-0.01-0.16l-0.04-0.17l-0.05-0.16
		l-0.05-0.16l-0.05-0.16l-0.06-0.15l-0.07-0.15l-0.08-0.16l-0.09-0.15l-0.09-0.14L32.4,4l-0.11-0.13l-0.11-0.13l-0.11-0.11
		l-0.68-0.66l-0.1-0.09l-0.09-0.11l-0.09-0.11l-0.07-0.11l-0.07-0.14l-0.03-0.08l-0.02-0.15V2.03l0.04-0.15l0.1-0.21l0.11-0.11
		l0.06-0.05l0.06-0.04l0.12-0.08l0.13-0.07l0.08-0.03l0.04,0.03l0.07,0.02l0.1,0.01l0.11,0h1.32v4.18h1.08V1.36h0.86l0.13-0.02
		l0.12-0.03l0.12-0.04l0.11-0.06l0.1-0.07l0.08-0.11l0.06-0.11l0.04-0.11L36,0.69L35.99,0.58z M1.33,1.32h1.65l0.15,0.02l0.15,0.05
		l0.06,0.04l0.07,0.05l0.06,0.04l0.06,0.06l0.06,0.08l0.05,0.09l0.05,0.1l0.04,0.1l0.03,0.11l0.02,0.1l0.01,0.1v0.11l-0.01,0.1
		L3.77,2.53l-0.03,0.1L3.71,2.71L3.67,2.8L3.61,2.87L3.56,2.94L3.49,3.01L3.37,3.09L3.22,3.15L3.08,3.19L2.93,3.2h-1.6V1.32z"/>
</g>
</svg>
