<?xml version="1.0" encoding="utf-8"?>
<!-- Generator: Adobe Illustrator 15.0.0, SVG Export Plug-In . SVG Version: 6.00 Build 0)  -->
<!DOCTYPE svg PUBLIC "-//W3C//DTD SVG 1.1//EN" "http://www.w3.org/Graphics/SVG/1.1/DTD/svg11.dtd">
<svg version="1.1" id="Layer_1" xmlns="http://www.w3.org/2000/svg" xmlns:xlink="http://www.w3.org/1999/xlink" x="0px" y="0px"
	 width="50px" height="50.949px" viewBox="0 0 50 50.949" enable-background="new 0 0 50 50.949" xml:space="preserve">
<path fill-rule="evenodd" clip-rule="evenodd" d="M29.967,12.615c-0.604-1.094,0.368-2.656,1.464-2.195
	c0.576,0.243,0.707,1.295,0.531,2.195c-0.596-0.181-0.438-1.113-0.997-1.33C30.322,11.418,30.568,12.441,29.967,12.615z
	 M24.115,13.547c1.852,0.354,1.652-3.896,0-3.459C23.027,10.375,22.966,13.327,24.115,13.547z M49.972,35.695
	c-0.09,1.34-0.604,3.969-2.195,3.991c-1.454,0.021-2.068-2.44-2.66-3.392c-0.816,0.986-1.169,2.259-1.796,3.392
	c-0.618,1.118-1.338,2.071-2.128,2.993c1.316,0.806,2.784,1.221,3.791,2.262c0.847,0.876,1.145,2.471,0.133,3.525
	c-2.238,2.333-9.099,2.395-13.169,1.529c-1.65-0.351-3.051-0.986-4.257-1.264c-0.538-0.123-2.265-0.325-2.661-0.266
	c-0.649,0.098-1.413,0.928-2.128,1.264C18.926,51.6,10.708,51.203,7.47,49.331c-0.462-0.267-1.203-0.889-1.397-1.529
	c-0.298-0.986-0.027-2.309,0.333-2.927c0.64-1.099,2.184-1.578,3.725-1.663c-0.784-1.234-2.161-2.068-3.06-3.392
	C6.187,38.518,5.478,37,5.208,35.098c-0.483,1.151-0.98,2.355-2.062,3.259c-0.499,0.417-1.528,1.048-2.262,0.799
	c-1.196-0.408-0.884-3.568-0.731-5.123c0.528-5.386,3.975-8.619,6.984-11.174c-0.73-1.408,0.045-3.208,0.798-4.124
	c-0.219-1.388,0.686-2.025,0.865-2.859c0.077-0.362-0.042-0.836,0-1.264c0.197-2.037,1.104-4.129,1.995-5.787
	c1.834-3.414,4.701-5.767,8.115-7.45c3.689-1.819,10.007-1.731,14.301-0.333c6.18,2.013,9.052,6.604,10.443,13.436
	c0.116,0.573,0.167,1.218,0.332,1.796c0.422,1.482,1.835,2.441,1.597,4.855c-0.057,0.566-0.213,0.986-0.466,1.663
	C46.84,25.979,50.349,30.083,49.972,35.695z M31.763,16.406c1.672-0.212,2.727-2.639,2.727-4.589c0-2.15-1.2-5.059-3.524-4.523
	c-0.749,0.173-1.374,0.812-1.663,1.264C27.901,10.743,28.07,16.877,31.763,16.406z M22.052,16.208
	c0.443,0.179,0.954,0.205,1.463,0.066c1.32-0.36,2.395-2.445,2.395-4.523c0-2.164-1.237-4.992-3.459-4.522
	c-0.481,0.102-0.867,0.333-1.13,0.598C19.478,9.679,19.425,15.146,22.052,16.208z M14.986,20.797
	c0.029,0.526,1.093,0.82,1.596,0.997c0.737,0.259,1.268,0.426,1.996,0.599c-0.181-0.594-0.599-0.952-0.798-1.529
	c2.272,1.708,5.155,3.418,9.112,3.192c3.524-0.2,6.27-1.713,8.447-2.993c-0.282,0.561-0.865,0.82-1.197,1.33
	c0.837-0.054,1.438-0.196,2.194-0.531c0.438-0.194,1.535-0.711,1.53-1.197c-0.004-0.415-1.295-1.095-1.995-1.397
	c-2.98-1.288-6.65-1.969-10.377-1.796c-3.361,0.157-6.258,0.769-8.713,1.929C16.255,19.648,14.955,20.253,14.986,20.797z
	 M23.167,48.268c-4.208-0.628-8.463-1.928-11.308-3.991c-0.461-0.335-0.89-0.76-1.33-0.865c-1.087-0.26-3.56,0.93-3.658,2.063
	c0.23,0.481,1.079-0.038,1.397,0.133c-0.653,0.491-1.783,0.911-1.73,1.929c0.024,0.438,0.63,0.973,0.998,1.197
	c1.417,0.866,3.767,1.493,6.12,1.597c3.284,0.145,6.781-0.02,8.713-1.197C22.698,48.931,23.248,48.383,23.167,48.268z M40.86,43.012
	c-2.925,2.641-6.429,4.701-11.307,5.389c1.748,1.153,5.462,1.907,9.046,1.662c2.274-0.154,4.949-0.81,6.052-1.928
	c0.302-0.307,0.766-1.105,0.665-1.797c-0.203-1.403-2.051-1.011-3.525-1.131c0.206-0.615,1.049-0.592,1.797-0.665
	C43.178,43.798,41.927,43.319,40.86,43.012z M43.122,34.765c0.034-3.305-1.234-5.189-2.661-7.384
	c-4.418,3.242-12.464,5.721-19.887,3.925c-0.168,2.324,0.946,5.94-0.931,6.718c-0.854,0.354-2.019,0.292-2.993,0.2
	c-1.701-0.16-3.414-1.188-3.792-2.927c-0.459-2.116,0.286-4.313,0.466-6.519c-0.748-0.582-1.719-0.942-2.461-1.53
	c-1.115,0.371-1.586,2.424-1.796,3.925c-0.593,4.259,0.425,7.773,2.262,9.978c1.693,2.031,4.198,3.777,7.05,4.922
	c2.85,1.144,6.514,2.045,10.177,1.862c3.627-0.181,7.363-2.212,9.645-4.19C40.437,41.803,43.08,38.744,43.122,34.765z"/>
</svg>
